<svg xmlns="http://www.w3.org/2000/svg" width="434" height="115" viewBox="0 0 434 115">
  <g id="Group_14" data-name="Group 14" transform="translate(-151 -336)">
    <rect id="Rectangle_16" data-name="Rectangle 16" width="434" height="115" rx="32" transform="translate(151 336)" fill="#23252a"/>
    <g id="Group_15" data-name="Group 15">
      <path id="Path_44" data-name="Path 44" d="M-151.767-9.163a6.231,6.231,0,0,0,3.157,1.386,16.757,16.757,0,0,0,3.542.462l1.463-.539-.154-.385h.77a9.818,9.818,0,0,1,1.694,5.39l-.077.77-.77.539-.693-.693q-3.542-.077-10.7.308-1.232.154-5.544,1.155a24.252,24.252,0,0,1-5.7.847,11.829,11.829,0,0,1-6.237-1.54l-.693.385-.693-.77-.077-1a7.361,7.361,0,0,1,1.54-4.466q.77.385.616.616l1.155,1,2,.231q3.619,0,5.082-1.694-.77-9.856-.77-20.713a163.335,163.335,0,0,1,.77-17.017q-.622-.77-3.264-1.386A16.477,16.477,0,0,0-169-46.816l-1.476.539.231.308-.693.077a10.5,10.5,0,0,1-1.54-5.39,1.347,1.347,0,0,1,.77-1.309,1.4,1.4,0,0,0,.693.847q3.542-.077,10.7-.462,1.309-.154,5.544-1.078a27.555,27.555,0,0,1,5.775-.77,12.426,12.426,0,0,1,6.16,1.463l.693-.385.693.76.154.913a8.049,8.049,0,0,1-1.6,4.486q-.841-.295-.688-.59l-1.224-.958-1.986-.147q-3.9-.308-4.969,1.771.539,10.78.539,20.79Q-151.228-16.786-151.767-9.163Zm9.317-46.046-.693.462a18.384,18.384,0,0,0-5.852-.924,77.847,77.847,0,0,0-10.164.924q-7.469,1-10.241,1.232l.077-1.694q-5.7,2.079-5.7,3.619a13.144,13.144,0,0,0,2.464,7.315h3.157a21.762,21.762,0,0,0,1.617,3.311h3q0,2.913-.077,11.037-.077,6.975-.077,11.037.077,6.132.385,11.114l-1.848.46.308-.146a21.034,21.034,0,0,1-5.39-2.626q-3.388,4.235-3.388,7.238,0,2.233,3.465,3.927l.539-.385.77.308a7.174,7.174,0,0,0,3.465,3.388l.616-.385a16.833,16.833,0,0,0,6.16,1,53.239,53.239,0,0,0,9.124-1.155,53.47,53.47,0,0,1,9.279-1.155h2.156l1.078.77a9.9,9.9,0,0,0,3.465-.924,5.076,5.076,0,0,0,.693-2.31q0-2.926-2.541-6.853h-3.157a23.721,23.721,0,0,0-1.617-3.234h-3.08a117.033,117.033,0,0,1-.154-12.4q.385-10.7.385-12.4a70.185,70.185,0,0,0-.462-8.47,8.092,8.092,0,0,1,3.08-.462q.308,0,.308.154a2.315,2.315,0,0,0-.077.385l1.694.924h-.077l2.772.924q2.926-4.235,2.926-7.315,0-1.617-3.542-3.388l-.693.462q-.462-.077-1.232-1.771A8.172,8.172,0,0,0-142.45-55.209ZM-75.229-28.45a15.139,15.139,0,0,1,.346-2.613,15.219,15.219,0,0,0,.347-2.689q0-6.609-3.889-10.029T-89.012-47.2a29.445,29.445,0,0,0-4.5.5,29.334,29.334,0,0,1-4.428.5q-9.471,0-14.4,2.695-6.545,3.542-6.545,12.089a13.379,13.379,0,0,0,.347,2.5,13.379,13.379,0,0,1,.346,2.5,17.863,17.863,0,0,1-.346,2.772,17.888,17.888,0,0,0-.347,2.849q0,6.468,3.927,9.818t10.472,3.35a27.691,27.691,0,0,0,4.7-.577,27.586,27.586,0,0,1,4.62-.578q20.636,0,20.636-14.447a15.138,15.138,0,0,0-.347-2.613A15.138,15.138,0,0,1-75.229-28.45ZM-107.723-1.232q-21.1,0-21.1-19.019V-35.728q0-10.626,10.318-14.322,6.16-2.156,19.481-2.156a41.79,41.79,0,0,0,6.429-.732,41.91,41.91,0,0,1,6.507-.731q9.856,0,15.477,4.389,6.314,4.774,6.314,14.322a22.068,22.068,0,0,1-.462,3.7,22,22,0,0,0-.462,3.619,24.08,24.08,0,0,0,.462,3.812,24.162,24.162,0,0,1,.462,3.889c0,5.493-5.467,12.4-5.467,12.4S-76.923-4-82.467-3.388q-2.849.385-14.014.616a41.352,41.352,0,0,0-5.505.808A32.272,32.272,0,0,1-107.723-1.232Zm50.589-15.246V-32.032q0-8.547-5.544-13.937h.077a31.79,31.79,0,0,0-23.177-9.317,34.716,34.716,0,0,0-5.621.616,48.878,48.878,0,0,1-5.467.77q-7.546.462-15.092.847-8.932,1.078-13.475,4.543-5.775,4.389-5.775,13.4a50.911,50.911,0,0,0,.693,7.854,12.233,12.233,0,0,0-.231,1.54,27.838,27.838,0,0,0-.462,5.852q0,11.4,9.7,17.864,8.47,5.7,20.482,5.7a48.368,48.368,0,0,0,8.47-1.19,6.476,6.476,0,0,0,1.694-.28.741.741,0,0,1-.308-.07h.077q15.4,0,22.1-2.233Q-57.134-4.158-57.134-16.478ZM-77.616-28.105a15.184,15.184,0,0,0,.346,2.541,15.2,15.2,0,0,1,.347,2.618q0,8.085-6.7,10.7Q-87.241-10.78-97.174-10.4a18.387,18.387,0,0,0-3.581.577,18.486,18.486,0,0,1-3.812.578,18.5,18.5,0,0,1-4.928-.616q-2.156-2.926-2.156-8.47a12.121,12.121,0,0,1,.385-2.5,12.071,12.071,0,0,0,.385-2.426l-.308-1.232v.077a22.069,22.069,0,0,1-.462-3.7q0-5.775,3.157-9.163h-.077q2.849-2.849,8.47-3.465,4.62-.308,9.317-.539.385-.077,3.234-.616a17.261,17.261,0,0,1,3.311-.385,17.2,17.2,0,0,1,5.005.77,13,13,0,0,1,2.31,8.008,15.281,15.281,0,0,1-.347,2.7A15.281,15.281,0,0,0-77.616-28.105Zm63.371-3.908q-.231,3.354-2.31,4.524-.462.231-11.55.77-10.472.462-13.167.462-11.781,0-11.55-4.828l.077-.934.539-.7a25.85,25.85,0,0,1,5.236-.467q2.31,0,6.815.385t6.507.385a73.6,73.6,0,0,0,7.431-.539,73.6,73.6,0,0,1,7.431-.539Q-15.246-33.495-14.245-32.013Zm3.619.52a1.36,1.36,0,0,1-1.463-.693q-.385-.77-.693-1.54a7.353,7.353,0,0,0-3-1.078l.385.077-.616-.077-.462-.077q-1.925-.231-2.618-.231-32.879,0-35.343,1.463l-.77,2.079.385,1.771-.077-.154a7.12,7.12,0,0,0,1.81,3.119,8.864,8.864,0,0,0,3.5,1.5q2.849,3.927,12.4,3.927,3.927,0,14.245-.462,11.7-.539,12.474-1a7.777,7.777,0,0,0,3.08-3.619v.077l.462-1.771-.924-2.233a6.636,6.636,0,0,0-3.157-1.078ZM-43.89-22.1a.222.222,0,0,0,.154.077L-44.2-22.1ZM25.025-2.464A25.78,25.78,0,0,0,18.634-1,25.6,25.6,0,0,1,11.627.462Q3.08.462-1.155-4.851l-1.078.308Q-3.7-5.159-3.7-6.083a11.233,11.233,0,0,1,1.463-6.083l-.154-.539.769-.154a16.287,16.287,0,0,0,2-.847A13.338,13.338,0,0,0,6.606-8.258a18.9,18.9,0,0,0,8.072,1.79A48.217,48.217,0,0,0,22.4-7.354a48.371,48.371,0,0,1,7.8-.885,24.545,24.545,0,0,0,7.61-1.078q4.766-1.54,4.766-4.7,0-5.929-4.3-8.239-3.151-1.771-9.454-1.771-1.536,0-4.381.115t-4.074.116q-11.146,0-15.834-3.465-5.457-4-5.457-14.784,0-7.315,10.5-9.24,3.63-.616,16.294-.616a22.966,22.966,0,0,0,5.714-1.347,22.7,22.7,0,0,1,6.332-1.347q8.494,0,12.664,4.851l1.082-.308,1.313,1.386a10.819,10.819,0,0,1-1.694,6.083l.077.077-.231.077L49.74-41.349q-.309-.231-1.157.154A10.621,10.621,0,0,0,43.1-46.123a18.054,18.054,0,0,0-7.405-1.54,38.993,38.993,0,0,0-6.634.809,38.992,38.992,0,0,1-6.634.808q-12.96,0-12.96,6.545,0,6.16,5.09,7.7,2.161.616,10.337.616a97.406,97.406,0,0,1,14.193.691q6.788,1.076,10.1,4.839,3.78,4.454,3.78,13.439,0,9.753-20.02,9.753H25.025ZM17.017-32.956q0,.077-.385-3.927l.693-1.694q2.233-2.464,7.238-2.464,1.078,0,3.234.116t3.08.116a18.667,18.667,0,0,0,4.659-1,18.693,18.693,0,0,1,4.966-1,7.066,7.066,0,0,1,4.235,1.078,10.258,10.258,0,0,1,2.772,3.619l1.463-.924A12.884,12.884,0,0,1,52.36-34.8l1.694-1.155.539.231a29.9,29.9,0,0,1,2.541-1.694,9.635,9.635,0,0,1,2.926-.154l-1.386-1.771a11.091,11.091,0,0,0,1.386-5.39q0-2.31-3.542-3.927l-.385.154q-1.848-1.54-4.466-3.388h-.385q-5.159-4.389-13.629-4.389a38.775,38.775,0,0,0-8.585,1.347,38.662,38.662,0,0,1-8.509,1.347q-12.474,0-18.48,3l.231-.077q-6.006,2.618-5.7,8.316l.231,3.157.231,1.155.308.693-.077-.154.077.616V-35.5A10.422,10.422,0,0,0-.385-29.183a11.284,11.284,0,0,0,2.849,2.656q1.694,1.117,3.388,2.194a48.987,48.987,0,0,0,4.312,3q3.85,2.079,10.549,2.31,1.155.077,9.471,0a67.851,67.851,0,0,1,9.471.539,14.115,14.115,0,0,1,.77,3.311,2.382,2.382,0,0,1-.231,1.078L39.578-12.4q-2.464,2.541-7.546,2.541-1.309,0-3.773-.192t-3.542-.193A18.893,18.893,0,0,0,19.982-9.2a18.865,18.865,0,0,1-5.043,1.039,9.487,9.487,0,0,1-8.239-4V-14.4L4.312-12.782a11.992,11.992,0,0,1-2.387-2.695v-2.156L-2.926-14.4q-1.925.154-1.925.308,0,.077.077.616A7.613,7.613,0,0,1-4.7-12.4,10.117,10.117,0,0,1-5.39-9.741a9.9,9.9,0,0,0-.693,2.964,3.752,3.752,0,0,0,1.232,2.7A3.68,3.68,0,0,0-2.233-2.849,3.309,3.309,0,0,1,0-1.463,7.768,7.768,0,0,0,2.079.462L2.618.385q5.159,5,13.937,5a40.273,40.273,0,0,0,8.932-1.424,40.085,40.085,0,0,1,8.778-1.425q11.627,0,16.4-1.232,9.548-2.618,9.548-10.857,0-6.391-2-10.087T50.82-26.95a29.776,29.776,0,0,0-17.094-5.467q-1.232,0-3.888.077t-4.2.077A51.488,51.488,0,0,1,17.017-32.956ZM123.97-3.234l.847,1.309-.616.847-1.232.308q-6.237,0-20.713-8.778Q89.32-17.325,83.314-23.254a37.15,37.15,0,0,0-6.622,4.7l.308.231q-2.233,3.388-2.233,13.013a10.6,10.6,0,0,0,.385,2.849l.308-.308.693.385Q74.382-.077,69.3-.077a18.8,18.8,0,0,1-3.08-.385l-1-1.309.385-.77a10.65,10.65,0,0,1-1-4.928q0-36.575,1.309-44.352a6.757,6.757,0,0,1-.693-1.155l.231-.77.847-.308a15.85,15.85,0,0,1,5.236,1.078,11.147,11.147,0,0,1,4.62,2.618l-.77.385v-.077a11.627,11.627,0,0,0-.616,3.7q0,13.629,1.773,20.713,30.386-29.337,42.34-29.337,3.548,0,4.473,1.724a10.964,10.964,0,0,1-.924,1.125H122.2q-9.163.077-18.1,8.085Q99.33-39.732,90.783-28.567a233.1,233.1,0,0,1,32.956,25.41ZM98.56-25.641a88.9,88.9,0,0,1,11.781-13.706q8.085-7.315,15.631-7.854l2.31,1.54a16.126,16.126,0,0,1,2.387-3.85q-.231-2.464-4.851-3.619-1.155-3.465-6.93-3.465a18.4,18.4,0,0,0-7.7,1.309q-3.157,2-6.391,4a89.764,89.764,0,0,0-11.473,8.393l-10.78,9.24a68.3,68.3,0,0,1-.462-9.086l.308-3,1.925-.693A33.217,33.217,0,0,0,77.27-51.9a28.077,28.077,0,0,0-8.047-3.465H69.3a11.788,11.788,0,0,0-2.541-.308l-2.695.539-1.232,2a1.074,1.074,0,0,0,.27.809,1.587,1.587,0,0,1,.347.732q0,24.948-.924,36.5v-.077q-.385,5.236-.385,7.7a12.273,12.273,0,0,0,.924,5.005,2.06,2.06,0,0,0-.154.77q0,2.387,4.774,3.234-.231,1.617,2.387,2.618a11.485,11.485,0,0,0,4.158.77q6.314,0,9.625-4.466Q83.006,0,82.236-.462A3.861,3.861,0,0,1,82-2.233q0-9.394,2.618-13.013l-.154-.077q1-.77,3-2,5.082,3.773,12.936,8.624h-.154q9.779,6.622,12.859,8.316,8.162,4.543,14.322,4.543l3.08-.616,1.54-2.233a16.635,16.635,0,0,0-2.772-4l-.539.308A277.122,277.122,0,0,0,98.56-25.641ZM155.771-9.163a6.231,6.231,0,0,0,3.157,1.386,16.757,16.757,0,0,0,3.542.462l1.463-.539-.154-.385h.77a9.818,9.818,0,0,1,1.694,5.39l-.077.77-.77.539-.693-.693q-3.542-.077-10.7.308-1.232.154-5.544,1.155a24.252,24.252,0,0,1-5.7.847,11.829,11.829,0,0,1-6.237-1.54l-.693.385-.693-.77-.077-1a7.361,7.361,0,0,1,1.54-4.466q.77.385.616.616l1.155,1,2,.231q3.619,0,5.082-1.694-.77-9.856-.77-20.713a163.335,163.335,0,0,1,.77-17.017q-.622-.77-3.264-1.386a16.477,16.477,0,0,0-3.653-.539l-1.476.539.231.308-.693.077a10.5,10.5,0,0,1-1.54-5.39,1.347,1.347,0,0,1,.77-1.309,1.4,1.4,0,0,0,.693.847q3.542-.077,10.7-.462,1.309-.154,5.544-1.078a27.555,27.555,0,0,1,5.775-.77,12.426,12.426,0,0,1,6.16,1.463l.693-.385.693.76.154.913a8.049,8.049,0,0,1-1.6,4.486q-.841-.295-.688-.59l-1.224-.958-1.986-.147q-3.9-.308-4.969,1.771.539,10.78.539,20.79Q156.31-16.786,155.771-9.163Zm9.317-46.046-.693.462a18.384,18.384,0,0,0-5.852-.924,77.847,77.847,0,0,0-10.164.924q-7.469,1-10.241,1.232l.077-1.694q-5.7,2.079-5.7,3.619a13.144,13.144,0,0,0,2.464,7.315h3.157a21.762,21.762,0,0,0,1.617,3.311h3q0,2.913-.077,11.037-.077,6.975-.077,11.037.077,6.132.385,11.114l-1.848.46.308-.146a21.034,21.034,0,0,1-5.39-2.626q-3.388,4.235-3.388,7.238,0,2.233,3.465,3.927l.539-.385.77.308a7.174,7.174,0,0,0,3.465,3.388L141.526,4a16.833,16.833,0,0,0,6.16,1,53.239,53.239,0,0,0,9.124-1.155,53.47,53.47,0,0,1,9.279-1.155h2.156l1.078.77a9.9,9.9,0,0,0,3.465-.924,5.076,5.076,0,0,0,.693-2.31q0-2.926-2.541-6.853h-3.157a23.721,23.721,0,0,0-1.617-3.234h-3.08a117.033,117.033,0,0,1-.154-12.4q.385-10.7.385-12.4a70.185,70.185,0,0,0-.462-8.47,8.092,8.092,0,0,1,3.08-.462q.308,0,.308.154a2.315,2.315,0,0,0-.077.385l1.694.924h-.077l2.772.924q2.926-4.235,2.926-7.315,0-1.617-3.542-3.388l-.693.462q-.462-.077-1.232-1.771A8.172,8.172,0,0,0,165.088-55.209Z" transform="translate(365 415)" fill="#22429a"/>
    </g>
  </g>
</svg>
