<svg xmlns="http://www.w3.org/2000/svg" width="569" height="151" viewBox="0 0 569 151">
  <g id="group16" transform="translate(0)">
    <rect id="Rectangle_16" data-name="Rectangle 16" width="569" height="151" rx="55" transform="translate(0)" fill="#23252a"/>
    <g id="Group_15" data-name="Group 15" transform="translate(56.047 34.731)">
      <path id="Path_44" data-name="Path 44" d="M-133.859,7.267l-.2-.5h1.009q2.421,4.136,2.22,7.062l-.1,1.009-1.009.706-.908-.908q-4.641-.1-14.023.4-1.614.2-7.264,1.513a31.775,31.775,0,0,1-7.466,1.11,15.5,15.5,0,0,1-8.172-2.018l-.908.5-.908-1.009-.1-1.312a9.645,9.645,0,0,1,2.018-5.851q1.009.5.807.807l1.513,1.312,2.623.3q4.742,0,6.659-2.22-1.009-12.914-1.009-27.139a214,214,0,0,1,1.009-22.3q-.815-1.009-4.277-1.816a21.589,21.589,0,0,0-4.786-.706l-1.934.706.3.4-.908.1a13.758,13.758,0,0,1-2.018-7.062,1.765,1.765,0,0,1,1.009-1.715,1.837,1.837,0,0,0,.908,1.11q4.641-.1,14.023-.605,1.715-.2,7.264-1.412a36.1,36.1,0,0,1,7.567-1.009,16.281,16.281,0,0,1,8.071,1.917l.908-.5.908,1,.2,1.2a10.546,10.546,0,0,1-2.1,5.878q-1.1-.386-.9-.772l-1.6-1.255-2.6-.192q-5.109-.4-6.51,2.32.706,14.124.706,27.24C-143.847-8.438-135.137,7.738-133.859,7.267Zm1.513-62.046-.908.605a24.088,24.088,0,0,0-7.667-1.211,102,102,0,0,0-13.317,1.211q-9.786,1.312-13.418,1.614l.1-2.22q-7.466,2.724-7.466,4.742a17.222,17.222,0,0,0,3.228,9.584h4.136a28.513,28.513,0,0,0,2.119,4.338h3.935q0,3.816-.1,14.462-.1,9.138-.1,14.462.1,8.035.5,14.562l-2.421.6.4-.191a27.56,27.56,0,0,1-7.062-3.441q-4.439,5.549-4.439,9.483,0,2.926,4.54,5.145l.706-.5,1.009.4a9.4,9.4,0,0,0,4.54,4.439l.807-.5a22.055,22.055,0,0,0,8.071,1.312A69.754,69.754,0,0,0-143.191,22.6a70.058,70.058,0,0,1,12.157-1.513h2.825L-126.8,22.1a12.974,12.974,0,0,0,4.54-1.211,6.65,6.65,0,0,0,.908-3.027q0-3.834-3.329-8.979h-4.136a31.08,31.08,0,0,0-2.119-4.237h-4.035a153.334,153.334,0,0,1-.2-16.243q.5-14.023.5-16.243a91.958,91.958,0,0,0-.605-11.1,10.6,10.6,0,0,1,4.035-.605q.4,0,.4.2a3.033,3.033,0,0,0-.1.5l2.22,1.211h-.1l3.632,1.211q3.834-5.549,3.834-9.584,0-2.119-4.641-4.439l-.908.605q-.605-.1-1.614-2.32Q-129.016-53.064-132.346-54.779Zm88.075,35.06a19.835,19.835,0,0,1,.454-3.424,19.94,19.94,0,0,0,.454-3.523q0-8.659-5.095-13.14T-62.33-44.287a38.58,38.58,0,0,0-5.9.656,38.434,38.434,0,0,1-5.8.656q-12.409,0-18.866,3.531-8.575,4.641-8.575,15.839a17.53,17.53,0,0,0,.454,3.279,17.529,17.529,0,0,1,.454,3.279,23.4,23.4,0,0,1-.454,3.632,23.438,23.438,0,0,0-.454,3.733q0,8.475,5.145,12.863t13.721,4.389a36.282,36.282,0,0,0,6.154-.757A36.144,36.144,0,0,1-70.4,6.056q27.038,0,27.038-18.929a19.834,19.834,0,0,0-.454-3.424A19.834,19.834,0,0,1-44.271-19.719ZM-86.845,15.943q-27.643,0-27.643-24.919V-29.255q0-13.922,13.519-18.765,8.071-2.825,25.525-2.825a54.753,54.753,0,0,0,8.424-.958,54.912,54.912,0,0,1,8.525-.958q12.914,0,20.278,5.751,8.273,6.255,8.273,18.765A28.914,28.914,0,0,1-30.55-23.4a28.831,28.831,0,0,0-.605,4.742,31.551,31.551,0,0,0,.605,4.994,31.657,31.657,0,0,1,.605,5.095q0,10.795-7.163,16.243-5.751,4.237-16.646,5.448-3.733.5-18.362.807a54.181,54.181,0,0,0-7.213,1.059A42.283,42.283,0,0,1-86.845,15.943ZM-20.562-4.033V-24.412q0-11.2-7.264-18.261h.1Q-40.135-54.88-58.093-54.88a45.485,45.485,0,0,0-7.365.807,64.041,64.041,0,0,1-7.163,1.009q-9.887.605-19.774,1.11Q-104.1-50.542-110.05-46q-7.567,5.751-7.567,17.554a66.7,66.7,0,0,0,.908,10.291,16.025,16.025,0,0,0-.3,2.018,36.475,36.475,0,0,0-.605,7.667q0,14.931,12.712,23.406,11.1,7.466,26.836,7.466a63.373,63.373,0,0,0,11.1-1.559,8.485,8.485,0,0,0,2.22-.367.971.971,0,0,1-.4-.091h.1q20.177,0,28.955-2.926Q-20.562,12.109-20.562-4.033ZM-47.4-19.267a19.9,19.9,0,0,0,.454,3.329,19.915,19.915,0,0,1,.454,3.43q0,10.593-8.777,14.023-4.742,1.917-17.756,2.421a24.091,24.091,0,0,0-4.691.757,24.221,24.221,0,0,1-4.994.757,24.243,24.243,0,0,1-6.457-.807Q-91.991.81-91.991-6.454a15.883,15.883,0,0,1,.5-3.279,15.815,15.815,0,0,0,.5-3.178l-.4-1.614v.1a28.915,28.915,0,0,1-.605-4.843q0-7.567,4.136-12.006h-.1q3.733-3.733,11.1-4.54,6.053-.4,12.207-.706.5-.1,4.237-.807a22.616,22.616,0,0,1,4.338-.5,22.534,22.534,0,0,1,6.558,1.009q3.027,4.036,3.027,10.492a20.022,20.022,0,0,1-.454,3.531A20.022,20.022,0,0,0-47.4-19.267Zm83.03-5.12q-.3,4.395-3.027,5.927-.605.3-15.133,1.009Q3.751-16.845.22-16.845q-15.436,0-15.133-6.326l.1-1.223.706-.919a33.869,33.869,0,0,1,6.86-.612q3.027,0,8.929.5t8.525.5a96.431,96.431,0,0,0,9.736-.706,96.431,96.431,0,0,1,9.736-.706Q34.32-26.329,35.632-24.387Zm4.742.681a1.782,1.782,0,0,1-1.917-.908q-.5-1.009-.908-2.018a9.634,9.634,0,0,0-3.935-1.412l.5.1-.807-.1-.605-.1q-2.522-.3-3.43-.3-43.079,0-46.307,1.917l-1.009,2.724.5,2.32-.1-.2A9.329,9.329,0,0,0-15.266-17.6a11.614,11.614,0,0,0,4.59,1.967q3.733,5.145,16.243,5.145,5.145,0,18.664-.605,15.335-.706,16.344-1.312a10.189,10.189,0,0,0,4.035-4.742v.1l.605-2.32-1.211-2.926a8.7,8.7,0,0,0-4.136-1.412ZM-3.21-11.4a.291.291,0,0,0,.2.1l-.605-.1ZM87.084,14.329q-2.32,0-8.374,1.917a33.535,33.535,0,0,1-9.181,1.917q-11.2,0-16.747-6.961l-1.412.4q-1.917-.807-1.917-2.018a14.717,14.717,0,0,1,1.917-7.97l-.2-.706,1.007-.2A21.34,21.34,0,0,0,54.794-.4a17.476,17.476,0,0,0,8.158,7.138A24.759,24.759,0,0,0,73.528,9.083,63.175,63.175,0,0,0,83.65,7.922a63.377,63.377,0,0,1,10.223-1.16,32.159,32.159,0,0,0,9.971-1.412q6.244-2.018,6.244-6.154,0-7.768-5.64-10.795-4.129-2.32-12.387-2.32-2.013,0-5.74.151t-5.338.151q-14.6,0-20.747-4.54-7.15-5.246-7.15-19.37,0-9.584,13.76-12.106,4.756-.807,21.349-.807a30.091,30.091,0,0,0,7.486-1.766,29.745,29.745,0,0,1,8.3-1.766q11.129,0,16.593,6.356l1.417-.4,1.72,1.816a14.175,14.175,0,0,1-2.22,7.97l.1.1-.3.1-1.819,1.412q-.405-.3-1.516.2a13.916,13.916,0,0,0-7.177-6.457,23.654,23.654,0,0,0-9.7-2.018,51.09,51.09,0,0,0-8.692,1.059,51.089,51.089,0,0,1-8.692,1.059q-16.981,0-16.981,8.575,0,8.071,6.67,10.089,2.831.807,13.544.807,13.341,0,18.6.9,8.894,1.409,13.238,6.34,4.953,5.836,4.953,17.608,0,12.778-26.231,12.778H87.084ZM76.592-25.623q0,.1-.5-5.145L77-32.987q2.926-3.228,9.483-3.228,1.412,0,4.237.151t4.035.151a24.457,24.457,0,0,0,6.1-1.312,24.491,24.491,0,0,1,6.507-1.312,9.258,9.258,0,0,1,5.549,1.412,13.44,13.44,0,0,1,3.632,4.742l1.917-1.211a16.88,16.88,0,0,1,4.439,5.549l2.22-1.513.706.3a39.176,39.176,0,0,1,3.329-2.22,12.624,12.624,0,0,1,3.834-.2L131.172-34a14.531,14.531,0,0,0,1.816-7.062q0-3.027-4.641-5.145l-.5.2q-2.421-2.018-5.851-4.439h-.5q-6.759-5.751-17.857-5.751a50.8,50.8,0,0,0-11.249,1.766A50.655,50.655,0,0,1,81.233-52.66q-16.344,0-24.213,3.935l.3-.1q-7.869,3.43-7.466,10.9l.3,4.136.3,1.513.4.908-.1-.2.1.807v1.816a13.655,13.655,0,0,0,2.926,8.273A14.784,14.784,0,0,0,57.524-17.2q2.22,1.463,4.439,2.875a64.184,64.184,0,0,0,5.65,3.935q5.044,2.724,13.822,3.027,1.513.1,12.409,0a88.9,88.9,0,0,1,12.409.706,18.494,18.494,0,0,1,1.009,4.338,3.12,3.12,0,0,1-.3,1.412l-.807,2.22q-3.228,3.329-9.887,3.329-1.715,0-4.943-.252t-4.641-.252a24.754,24.754,0,0,0-6.2,1.362,24.717,24.717,0,0,1-6.608,1.362q-7.062,0-10.795-5.246V-1.309L59.946.81a15.712,15.712,0,0,1-3.128-3.531V-5.546L50.462-1.309q-2.522.2-2.522.4,0,.1.1.807a9.975,9.975,0,0,1,.1,1.412,13.256,13.256,0,0,1-.908,3.481,12.973,12.973,0,0,0-.908,3.884A4.917,4.917,0,0,0,47.94,12.21a4.821,4.821,0,0,0,3.43,1.614q1.312,0,2.926,1.816a10.177,10.177,0,0,0,2.724,2.522l.706-.1q6.759,6.558,18.261,6.558a52.767,52.767,0,0,0,11.7-1.866,52.521,52.521,0,0,1,11.5-1.866q15.234,0,21.489-1.614,12.51-3.43,12.51-14.225,0-8.374-2.623-13.216t-9.685-9.584a39.014,39.014,0,0,0-22.4-7.163q-1.614,0-5.095.1t-5.5.1A67.461,67.461,0,0,1,76.592-25.623ZM216.725,13.32l1.11,1.715-.807,1.11-1.614.4q-8.172,0-27.139-11.5-16.949-10.19-24.818-17.958a48.675,48.675,0,0,0-8.676,6.154l.4.3q-2.926,4.439-2.926,17.05a13.882,13.882,0,0,0,.5,3.733l.4-.4.908.5q-2.32,3.027-8.979,3.027a24.638,24.638,0,0,1-4.035-.5l-1.312-1.715.5-1.009a13.954,13.954,0,0,1-1.312-6.457q0-47.922,1.715-58.111a8.854,8.854,0,0,1-.908-1.513l.3-1.009,1.11-.4a20.767,20.767,0,0,1,6.86,1.412q4.338,1.513,6.053,3.43l-1.009.5v-.1a15.234,15.234,0,0,0-.807,4.843q0,17.857,2.324,27.139,39.813-38.438,55.475-38.438,4.649,0,5.861,2.259a14.365,14.365,0,0,1-1.211,1.474h-.3q-12.006.1-23.709,10.593-6.255,5.65-17.454,20.278a305.419,305.419,0,0,1,43.18,33.293ZM183.432-16.038q8.575-11.8,15.436-17.958,10.593-9.584,20.48-10.291l3.027,2.018a21.128,21.128,0,0,1,3.128-5.044q-.3-3.228-6.356-4.742-1.513-4.54-9.08-4.54-6.457,0-10.089,1.715-4.136,2.623-8.374,5.246a117.61,117.61,0,0,0-15.032,11L162.447-26.531a89.485,89.485,0,0,1-.605-11.9l.4-3.935,2.522-.908a43.522,43.522,0,0,0-9.231-7.163,36.787,36.787,0,0,0-10.543-4.54h.1a15.445,15.445,0,0,0-3.329-.4l-3.531.706-1.614,2.623A1.407,1.407,0,0,0,136.973-51a2.079,2.079,0,0,1,.454.958q0,32.688-1.211,47.821v-.1q-.5,6.86-.5,10.089a16.08,16.08,0,0,0,1.211,6.558,2.7,2.7,0,0,0-.2,1.009q0,3.128,6.255,4.237-.3,2.119,3.128,3.43a15.049,15.049,0,0,0,5.448,1.009q8.273,0,12.611-5.851-1.11-.605-2.119-1.211a5.058,5.058,0,0,1-.3-2.32q0-12.308,3.43-17.05l-.2-.1q1.312-1.009,3.935-2.623,6.659,4.943,16.949,11.3h-.2q12.813,8.676,16.848,10.9,10.694,5.952,18.765,5.952L225.3,22.2l2.018-2.926a21.8,21.8,0,0,0-3.632-5.246l-.706.4Q207.443.305,183.432-16.038Zm74.959,21.59q.807,1.009,4.136,1.816a21.955,21.955,0,0,0,4.641.605l1.917-.706-.2-.5h1.009q2.421,4.136,2.22,7.062l-.1,1.009L271,15.539l-.908-.908q-4.641-.1-14.023.4-1.614.2-7.264,1.513a31.775,31.775,0,0,1-7.466,1.11,15.5,15.5,0,0,1-8.172-2.018l-.908.5-.908-1.009-.1-1.312a9.645,9.645,0,0,1,2.018-5.851q1.009.5.807.807l1.513,1.312,2.623.3q4.742,0,6.659-2.22-1.009-12.914-1.009-27.139a214,214,0,0,1,1.009-22.3q-.815-1.009-4.277-1.816a21.588,21.588,0,0,0-4.786-.706l-1.934.706.3.4-.908.1a13.758,13.758,0,0,1-2.018-7.062,1.765,1.765,0,0,1,1.009-1.715,1.837,1.837,0,0,0,.908,1.11q4.641-.1,14.023-.605,1.715-.2,7.264-1.412a36.1,36.1,0,0,1,7.567-1.009,16.281,16.281,0,0,1,8.071,1.917l.908-.5.908,1,.2,1.2a10.546,10.546,0,0,1-2.1,5.878q-1.1-.386-.9-.772l-1.6-1.255L264.9-46q-5.109-.4-6.51,2.32.706,14.124.706,27.24Q259.1-4.436,258.391,5.552ZM270.6-54.779l-.908.605a24.088,24.088,0,0,0-7.667-1.211,102,102,0,0,0-13.317,1.211q-9.786,1.312-13.418,1.614l.1-2.22q-7.466,2.724-7.466,4.742a17.222,17.222,0,0,0,3.228,9.584h4.136a28.514,28.514,0,0,0,2.119,4.338h3.935q0,3.816-.1,14.462-.1,9.138-.1,14.462.1,8.035.5,14.562l-2.421.6.4-.191a27.559,27.559,0,0,1-7.062-3.441q-4.439,5.549-4.439,9.483,0,2.926,4.54,5.145l.706-.5,1.009.4a9.4,9.4,0,0,0,4.54,4.439l.807-.5a22.055,22.055,0,0,0,8.071,1.312A69.755,69.755,0,0,0,259.753,22.6a70.058,70.058,0,0,1,12.157-1.513h2.825l1.412,1.009a12.974,12.974,0,0,0,4.54-1.211,6.65,6.65,0,0,0,.908-3.027q0-3.834-3.329-8.979H274.13a31.083,31.083,0,0,0-2.119-4.237h-4.035a153.337,153.337,0,0,1-.2-16.243q.5-14.023.5-16.243a91.955,91.955,0,0,0-.605-11.1,10.6,10.6,0,0,1,4.035-.605q.4,0,.4.2a3.035,3.035,0,0,0-.1.5l2.22,1.211h-.1l3.632,1.211Q281.6-41.966,281.6-46q0-2.119-4.641-4.439l-.908.605q-.605-.1-1.614-2.32Q273.928-53.064,270.6-54.779Z" transform="translate(175.021 56.595)" fill="#22429a"/>
    </g>
  </g>
</svg>
