<svg xmlns="http://www.w3.org/2000/svg" width="39.816" height="33.109" viewBox="0 0 39.816 33.109">
  <g id="icons8-menu" transform="translate(-4.11 -6.958)">
    <path id="Path_16" data-name="Path 16" d="M25.457,7.5a129.077,129.077,0,0,0-17.579.978,4.215,4.215,0,0,0-1.77.453c-1.354.815-1.381,2.156-1.244,3.731.045.522.163,1.146.65,1.338a1.436,1.436,0,0,0,.429.074A251.174,251.174,0,0,0,40.5,13.61,2.373,2.373,0,0,0,42.937,12.2a2.752,2.752,0,0,0-.707-3.871,4.761,4.761,0,0,0-3.271-.875C34.773,7.45,29.641,7.62,25.457,7.5Z" fill="#73a1b2"/>
    <path id="Path_17" data-name="Path 17" d="M18.881,14.979c-4.255,0-8.643-.115-12.972-.4a1.86,1.86,0,0,1-.58-.107c-.84-.332-.93-1.369-.963-1.76-.138-1.591-.137-3.227,1.484-4.2a4.641,4.641,0,0,1,1.977-.521,129.038,129.038,0,0,1,17.644-.981h0c2.587.072,5.549.032,8.412-.006,1.76-.023,3.487-.043,5.076-.042a5.223,5.223,0,0,1,3.528.947,2.955,2.955,0,0,1,1.35,1.865,3.57,3.57,0,0,1-.478,2.7,2.835,2.835,0,0,1-2.822,1.639C34.74,14.554,27.059,14.979,18.881,14.979Zm4.194-7.007A143.121,143.121,0,0,0,7.929,8.981a3.768,3.768,0,0,0-1.563.383c-1.034.622-1.149,1.586-1,3.26.046.538.159.847.335.916a1.1,1.1,0,0,0,.275.039,253.03,253.03,0,0,0,34.489-.467c1.224-.094,1.417-.165,2.051-1.175A2.566,2.566,0,0,0,42.864,10a1.939,1.939,0,0,0-.9-1.241,4.291,4.291,0,0,0-3.013-.8c-1.585,0-3.3.02-5.06.043-2.874.038-5.845.077-8.453.005h0Q24.238,7.97,23.075,7.972Z" fill="#010101"/>
    <path id="Path_18" data-name="Path 18" d="M24.805,21.407c-5.722.191-11.388.051-17.111.228-1.011.031-2.189.153-2.727,1.009s-.354,2.3-.215,3.315a1.578,1.578,0,0,0,1.623,1.415c1.055.106,2.48.064,3.542.083,9.226.17,19.083-.229,28.12-.008a5,5,0,0,0,3.492-1.04,3.873,3.873,0,0,0,1.122-2.746,2.858,2.858,0,0,0-.827-2.351,3.687,3.687,0,0,0-2.415-.554C34.351,20.788,29.861,21.239,24.805,21.407Z" fill="#73a1b2"/>
    <path id="Path_19" data-name="Path 19" d="M15.117,28c-1.754,0-3.5-.013-5.209-.044-1.052-.021-2.492.023-3.582-.086a2.054,2.054,0,0,1-2.069-1.845c-.173-1.268-.308-2.7.288-3.648.735-1.17,2.356-1.22,3.135-1.244,2.8-.086,5.637-.1,8.376-.107,2.859-.011,5.815-.022,8.733-.12h0c2.062-.068,4.057-.187,5.986-.3,2.768-.163,5.63-.331,8.632-.349a4.193,4.193,0,0,1,2.735.669,3.285,3.285,0,0,1,1.008,2.756,4.328,4.328,0,0,1-1.286,3.1,5.551,5.551,0,0,1-3.84,1.169c-4.692-.114-9.7-.061-14.55-.009C20.718,27.972,17.9,28,15.117,28Zm9.705-6.1c-2.933.1-5.9.109-8.763.12-2.733.011-5.56.021-8.349.107-.97.029-1.923.145-2.319.775-.452.721-.251,2.191-.143,2.982.06.435.246.892,1.177.985,1.035.1,2.465.062,3.5.08,4.418.082,9.054.032,13.538-.017,4.855-.052,9.875-.1,14.585.009a4.567,4.567,0,0,0,3.145-.911,3.441,3.441,0,0,0,.958-2.4,2.44,2.44,0,0,0-.645-1.945,3.318,3.318,0,0,0-2.094-.44c-2.976.018-5.7.178-8.58.347-1.935.116-3.937.234-6.011.3Z" fill="#010101"/>
    <path id="Path_20" data-name="Path 20" d="M23.814,33.916c-5.881.053-11.022-.458-16.907-.229a1.586,1.586,0,0,0-1.069.385,1.812,1.812,0,0,0-.283,1.514l.133,1.173C5.8,37.767,6.7,39.535,7.72,39.541c8.718.05,16.994.025,25.712-.074,1.72-.02,3.444-.042,5.154-.226a27.464,27.464,0,0,0,3.184-.532,1.906,1.906,0,0,0,1.074-.513,1.782,1.782,0,0,0,.33-.926,9.463,9.463,0,0,0,.077-1.748,2,2,0,0,0-1.933-1.9C35.427,33.455,29.755,33.863,23.814,33.916Z" fill="#73a1b2"/>
    <path id="Path_21" data-name="Path 21" d="M16.4,40.067c-2.868,0-5.748-.008-8.687-.025-1.4-.008-2.4-2.136-2.525-3.226l-.133-1.173a2.28,2.28,0,0,1,.427-1.926,2.053,2.053,0,0,1,1.4-.53c3.345-.128,6.51-.021,9.571.085,2.362.082,4.8.169,7.351.144h0c2.266-.021,4.527-.093,6.714-.164,3.518-.114,7.154-.23,10.808-.124A2.506,2.506,0,0,1,43.749,35.5a9.938,9.938,0,0,1-.081,1.841,2.207,2.207,0,0,1-.443,1.18,2.344,2.344,0,0,1-1.346.678,28.165,28.165,0,0,1-3.241.542c-1.765.189-3.591.21-5.2.229C27.573,40.035,22.011,40.067,16.4,40.067Zm-6.284-5.94c-1.043,0-2.1.018-3.192.061a1.112,1.112,0,0,0-.736.239c-.209.208-.19.653-.139,1.1L6.184,36.7c.106.942.935,2.335,1.538,2.339,8.681.052,16.849.027,25.7-.074,1.667-.019,3.39-.038,5.107-.223a27.49,27.49,0,0,0,3.125-.522,1.527,1.527,0,0,0,.8-.349,1.37,1.37,0,0,0,.216-.67,8.9,8.9,0,0,0,.073-1.656,1.5,1.5,0,0,0-1.448-1.42c-3.623-.106-7.244.01-10.747.124-2.192.07-4.459.144-6.737.164h0c-2.565.028-5.021-.062-7.394-.144C14.291,34.2,12.237,34.127,10.118,34.127Z" fill="#010101"/>
  </g>
</svg>
